<mxfile host="app.diagrams.net" agent="Mozilla/5.0 (Macintosh; Intel Mac OS X 10_15_7) AppleWebKit/605.1.15 (KHTML, like Gecko) Version/18.0 Safari/605.1.15" version="26.1.0">
  <diagram name="Page-1" id="UBZO3gMXBh9zxhg8P7WN">
    <mxGraphModel dx="1207" dy="847" grid="1" gridSize="10" guides="1" tooltips="1" connect="1" arrows="1" fold="1" page="1" pageScale="1" pageWidth="1169" pageHeight="827" math="0" shadow="0">
      <root>
        <mxCell id="0" />
        <mxCell id="1" parent="0" />
        <mxCell id="22XOwTxMhwaUILvPcaUI-16" value="Pool_Process Order" style="swimlane;html=1;childLayout=stackLayout;resizeParent=1;resizeParentMax=0;horizontal=0;startSize=20;horizontalStack=0;" vertex="1" parent="1">
          <mxGeometry x="20" y="131" width="1110" height="610" as="geometry" />
        </mxCell>
        <mxCell id="22XOwTxMhwaUILvPcaUI-21" value="Order department" style="swimlane;html=1;startSize=20;horizontal=0;" vertex="1" parent="22XOwTxMhwaUILvPcaUI-16">
          <mxGeometry x="20" width="1090" height="230" as="geometry" />
        </mxCell>
        <mxCell id="22XOwTxMhwaUILvPcaUI-22" value="" style="edgeStyle=orthogonalEdgeStyle;rounded=0;orthogonalLoop=1;jettySize=auto;html=1;" edge="1" parent="22XOwTxMhwaUILvPcaUI-21" source="22XOwTxMhwaUILvPcaUI-23">
          <mxGeometry relative="1" as="geometry">
            <mxPoint x="129.9999999999999" y="152" as="targetPoint" />
          </mxGeometry>
        </mxCell>
        <mxCell id="22XOwTxMhwaUILvPcaUI-23" value="" style="ellipse;whiteSpace=wrap;html=1;fillColor=#000000;" vertex="1" parent="22XOwTxMhwaUILvPcaUI-21">
          <mxGeometry x="40" y="132" width="40" height="40" as="geometry" />
        </mxCell>
        <mxCell id="22XOwTxMhwaUILvPcaUI-37" value="" style="rounded=1;whiteSpace=wrap;html=1;" vertex="1" parent="22XOwTxMhwaUILvPcaUI-21">
          <mxGeometry x="130" y="122" width="90" height="60" as="geometry" />
        </mxCell>
        <mxCell id="22XOwTxMhwaUILvPcaUI-38" value="Receive&lt;div&gt;order&lt;/div&gt;" style="text;html=1;align=center;verticalAlign=middle;whiteSpace=wrap;rounded=0;" vertex="1" parent="22XOwTxMhwaUILvPcaUI-21">
          <mxGeometry x="145" y="137" width="60" height="30" as="geometry" />
        </mxCell>
        <mxCell id="22XOwTxMhwaUILvPcaUI-43" value="" style="endArrow=classic;html=1;rounded=0;curved=1;exitX=1;exitY=0.5;exitDx=0;exitDy=0;" edge="1" parent="22XOwTxMhwaUILvPcaUI-21" source="22XOwTxMhwaUILvPcaUI-37">
          <mxGeometry width="50" height="50" relative="1" as="geometry">
            <mxPoint x="340" y="312" as="sourcePoint" />
            <mxPoint x="260.8445945945946" y="150.42905405405406" as="targetPoint" />
          </mxGeometry>
        </mxCell>
        <mxCell id="22XOwTxMhwaUILvPcaUI-44" value="Fill&lt;div&gt;order&lt;/div&gt;" style="rounded=1;whiteSpace=wrap;html=1;" vertex="1" parent="22XOwTxMhwaUILvPcaUI-21">
          <mxGeometry x="400" y="119.5" width="100" height="60" as="geometry" />
        </mxCell>
        <mxCell id="22XOwTxMhwaUILvPcaUI-46" value="" style="endArrow=classic;html=1;rounded=0;curved=1;exitX=1;exitY=0.5;exitDx=0;exitDy=0;entryX=0;entryY=0.5;entryDx=0;entryDy=0;" edge="1" parent="22XOwTxMhwaUILvPcaUI-21" source="22XOwTxMhwaUILvPcaUI-94" target="22XOwTxMhwaUILvPcaUI-44">
          <mxGeometry relative="1" as="geometry">
            <mxPoint x="310" y="149.5" as="sourcePoint" />
            <mxPoint x="410" y="282" as="targetPoint" />
          </mxGeometry>
        </mxCell>
        <mxCell id="22XOwTxMhwaUILvPcaUI-47" value="Label" style="edgeLabel;resizable=0;html=1;;align=center;verticalAlign=middle;" connectable="0" vertex="1" parent="22XOwTxMhwaUILvPcaUI-46">
          <mxGeometry relative="1" as="geometry" />
        </mxCell>
        <mxCell id="22XOwTxMhwaUILvPcaUI-48" value="[order&lt;div&gt;accepted]&lt;/div&gt;" style="edgeLabel;html=1;align=center;verticalAlign=middle;resizable=0;points=[];" vertex="1" connectable="0" parent="22XOwTxMhwaUILvPcaUI-46">
          <mxGeometry x="0.0667" y="-1" relative="1" as="geometry">
            <mxPoint as="offset" />
          </mxGeometry>
        </mxCell>
        <mxCell id="22XOwTxMhwaUILvPcaUI-50" value="SaveTo&lt;div&gt;Datebase&lt;/div&gt;" style="rounded=1;whiteSpace=wrap;html=1;" vertex="1" parent="22XOwTxMhwaUILvPcaUI-21">
          <mxGeometry x="580" y="69.5" width="120" height="60" as="geometry" />
        </mxCell>
        <mxCell id="22XOwTxMhwaUILvPcaUI-49" value="Ship&lt;div&gt;Order&lt;/div&gt;" style="rounded=1;whiteSpace=wrap;html=1;" vertex="1" parent="22XOwTxMhwaUILvPcaUI-21">
          <mxGeometry x="580" y="159" width="120" height="60" as="geometry" />
        </mxCell>
        <mxCell id="22XOwTxMhwaUILvPcaUI-52" value="" style="html=1;points=[];perimeter=orthogonalPerimeter;fillColor=strokeColor;" vertex="1" parent="22XOwTxMhwaUILvPcaUI-21">
          <mxGeometry x="530" y="109.5" width="5" height="80" as="geometry" />
        </mxCell>
        <mxCell id="22XOwTxMhwaUILvPcaUI-53" value="" style="endArrow=classic;html=1;rounded=0;curved=1;exitX=1;exitY=0.5;exitDx=0;exitDy=0;entryX=0.2;entryY=0.499;entryDx=0;entryDy=0;entryPerimeter=0;" edge="1" parent="22XOwTxMhwaUILvPcaUI-21" source="22XOwTxMhwaUILvPcaUI-44" target="22XOwTxMhwaUILvPcaUI-52">
          <mxGeometry width="50" height="50" relative="1" as="geometry">
            <mxPoint x="420" y="302" as="sourcePoint" />
            <mxPoint x="470" y="252" as="targetPoint" />
          </mxGeometry>
        </mxCell>
        <mxCell id="22XOwTxMhwaUILvPcaUI-59" value="" style="endArrow=classic;html=1;rounded=0;exitX=0.778;exitY=0.622;exitDx=0;exitDy=0;exitPerimeter=0;entryX=0;entryY=0.5;entryDx=0;entryDy=0;edgeStyle=elbowEdgeStyle;" edge="1" parent="22XOwTxMhwaUILvPcaUI-21" source="22XOwTxMhwaUILvPcaUI-52" target="22XOwTxMhwaUILvPcaUI-49">
          <mxGeometry width="50" height="50" relative="1" as="geometry">
            <mxPoint x="590" y="232" as="sourcePoint" />
            <mxPoint x="580" y="209.5" as="targetPoint" />
            <Array as="points">
              <mxPoint x="560" y="192" />
            </Array>
          </mxGeometry>
        </mxCell>
        <mxCell id="22XOwTxMhwaUILvPcaUI-60" value="" style="endArrow=classic;html=1;rounded=0;exitX=0.877;exitY=0.366;exitDx=0;exitDy=0;exitPerimeter=0;entryX=0;entryY=0.5;entryDx=0;entryDy=0;edgeStyle=elbowEdgeStyle;" edge="1" parent="22XOwTxMhwaUILvPcaUI-21" source="22XOwTxMhwaUILvPcaUI-52" target="22XOwTxMhwaUILvPcaUI-50">
          <mxGeometry width="50" height="50" relative="1" as="geometry">
            <mxPoint x="590" y="232" as="sourcePoint" />
            <mxPoint x="640" y="182" as="targetPoint" />
            <Array as="points">
              <mxPoint x="560" y="112" />
            </Array>
          </mxGeometry>
        </mxCell>
        <mxCell id="22XOwTxMhwaUILvPcaUI-61" value="" style="html=1;points=[];perimeter=orthogonalPerimeter;fillColor=strokeColor;" vertex="1" parent="22XOwTxMhwaUILvPcaUI-21">
          <mxGeometry x="750" y="159" width="5" height="62.5" as="geometry" />
        </mxCell>
        <mxCell id="22XOwTxMhwaUILvPcaUI-62" value="" style="endArrow=classic;html=1;rounded=0;exitX=1;exitY=0.5;exitDx=0;exitDy=0;entryX=0.276;entryY=0.502;entryDx=0;entryDy=0;entryPerimeter=0;" edge="1" parent="22XOwTxMhwaUILvPcaUI-21">
          <mxGeometry width="50" height="50" relative="1" as="geometry">
            <mxPoint x="698.62" y="190.2" as="sourcePoint" />
            <mxPoint x="749.9999999999999" y="190.075" as="targetPoint" />
          </mxGeometry>
        </mxCell>
        <mxCell id="22XOwTxMhwaUILvPcaUI-98" style="edgeStyle=elbowEdgeStyle;rounded=0;orthogonalLoop=1;jettySize=auto;html=1;exitX=0.5;exitY=0;exitDx=0;exitDy=0;entryX=0.5;entryY=0;entryDx=0;entryDy=0;" edge="1" parent="22XOwTxMhwaUILvPcaUI-21" source="22XOwTxMhwaUILvPcaUI-94" target="22XOwTxMhwaUILvPcaUI-95">
          <mxGeometry relative="1" as="geometry">
            <Array as="points">
              <mxPoint x="550" y="29" />
            </Array>
          </mxGeometry>
        </mxCell>
        <mxCell id="22XOwTxMhwaUILvPcaUI-99" value="[oredr&lt;div&gt;rejected]&lt;/div&gt;" style="edgeLabel;html=1;align=center;verticalAlign=middle;resizable=0;points=[];" vertex="1" connectable="0" parent="22XOwTxMhwaUILvPcaUI-98">
          <mxGeometry x="-0.2131" relative="1" as="geometry">
            <mxPoint as="offset" />
          </mxGeometry>
        </mxCell>
        <mxCell id="22XOwTxMhwaUILvPcaUI-94" value="" style="rhombus;whiteSpace=wrap;html=1;fontFamily=Helvetica;fontSize=12;fontColor=#000000;align=center;" vertex="1" parent="22XOwTxMhwaUILvPcaUI-21">
          <mxGeometry x="260" y="129.5" width="40" height="40" as="geometry" />
        </mxCell>
        <mxCell id="22XOwTxMhwaUILvPcaUI-95" value="" style="rhombus;whiteSpace=wrap;html=1;fontFamily=Helvetica;fontSize=12;fontColor=#000000;align=center;" vertex="1" parent="22XOwTxMhwaUILvPcaUI-21">
          <mxGeometry x="800" y="170.25" width="40" height="40" as="geometry" />
        </mxCell>
        <mxCell id="22XOwTxMhwaUILvPcaUI-97" value="" style="endArrow=classic;html=1;rounded=0;exitX=1;exitY=0.5;exitDx=0;exitDy=0;entryX=0;entryY=0.5;entryDx=0;entryDy=0;" edge="1" parent="22XOwTxMhwaUILvPcaUI-21" target="22XOwTxMhwaUILvPcaUI-95">
          <mxGeometry width="50" height="50" relative="1" as="geometry">
            <mxPoint x="755" y="190.2" as="sourcePoint" />
            <mxPoint x="806.3799999999999" y="190.075" as="targetPoint" />
          </mxGeometry>
        </mxCell>
        <mxCell id="22XOwTxMhwaUILvPcaUI-100" value="Close&lt;div&gt;Order&lt;/div&gt;" style="rounded=1;whiteSpace=wrap;html=1;" vertex="1" parent="22XOwTxMhwaUILvPcaUI-21">
          <mxGeometry x="870" y="164.75" width="70" height="51" as="geometry" />
        </mxCell>
        <mxCell id="22XOwTxMhwaUILvPcaUI-101" value="" style="endArrow=classic;html=1;rounded=0;exitX=1;exitY=0.5;exitDx=0;exitDy=0;" edge="1" parent="22XOwTxMhwaUILvPcaUI-21" source="22XOwTxMhwaUILvPcaUI-95" target="22XOwTxMhwaUILvPcaUI-100">
          <mxGeometry width="50" height="50" relative="1" as="geometry">
            <mxPoint x="780" y="129" as="sourcePoint" />
            <mxPoint x="830" y="79" as="targetPoint" />
          </mxGeometry>
        </mxCell>
        <mxCell id="22XOwTxMhwaUILvPcaUI-102" value="" style="ellipse;html=1;shape=endState;fillColor=strokeColor;" vertex="1" parent="22XOwTxMhwaUILvPcaUI-21">
          <mxGeometry x="980" y="175.25" width="30" height="30" as="geometry" />
        </mxCell>
        <mxCell id="22XOwTxMhwaUILvPcaUI-103" value="" style="endArrow=classic;html=1;rounded=0;exitX=1;exitY=0.5;exitDx=0;exitDy=0;entryX=0;entryY=0.5;entryDx=0;entryDy=0;" edge="1" parent="22XOwTxMhwaUILvPcaUI-21" source="22XOwTxMhwaUILvPcaUI-100" target="22XOwTxMhwaUILvPcaUI-102">
          <mxGeometry width="50" height="50" relative="1" as="geometry">
            <mxPoint x="980" y="179" as="sourcePoint" />
            <mxPoint x="1030" y="129" as="targetPoint" />
          </mxGeometry>
        </mxCell>
        <mxCell id="22XOwTxMhwaUILvPcaUI-28" value="Account Department" style="swimlane;html=1;startSize=20;horizontal=0;" vertex="1" parent="22XOwTxMhwaUILvPcaUI-16">
          <mxGeometry x="20" y="230" width="1090" height="190" as="geometry" />
        </mxCell>
        <mxCell id="22XOwTxMhwaUILvPcaUI-104" value="Send&lt;div&gt;Invoice&lt;/div&gt;" style="rounded=1;whiteSpace=wrap;html=1;" vertex="1" parent="22XOwTxMhwaUILvPcaUI-28">
          <mxGeometry x="310" y="60" width="100" height="80" as="geometry" />
        </mxCell>
        <mxCell id="22XOwTxMhwaUILvPcaUI-107" value="Accept&lt;div&gt;Payment&lt;/div&gt;" style="rounded=1;whiteSpace=wrap;html=1;" vertex="1" parent="22XOwTxMhwaUILvPcaUI-28">
          <mxGeometry x="600" y="55.75" width="100" height="78.5" as="geometry" />
        </mxCell>
        <mxCell id="22XOwTxMhwaUILvPcaUI-106" value="" style="endArrow=classic;html=1;rounded=0;exitX=1.103;exitY=0.863;exitDx=0;exitDy=0;exitPerimeter=0;entryX=0.5;entryY=0;entryDx=0;entryDy=0;edgeStyle=orthogonalEdgeStyle;elbow=vertical;" edge="1" parent="22XOwTxMhwaUILvPcaUI-16" source="22XOwTxMhwaUILvPcaUI-52" target="22XOwTxMhwaUILvPcaUI-104">
          <mxGeometry width="50" height="50" relative="1" as="geometry">
            <mxPoint x="530" y="179" as="sourcePoint" />
            <mxPoint x="420" y="279" as="targetPoint" />
            <Array as="points">
              <mxPoint x="565" y="178" />
              <mxPoint x="565" y="249" />
              <mxPoint x="385" y="249" />
            </Array>
          </mxGeometry>
        </mxCell>
        <mxCell id="22XOwTxMhwaUILvPcaUI-108" value="" style="endArrow=classic;html=1;rounded=0;exitX=1;exitY=0.5;exitDx=0;exitDy=0;entryX=-0.143;entryY=0.818;entryDx=0;entryDy=0;entryPerimeter=0;edgeStyle=orthogonalEdgeStyle;" edge="1" parent="22XOwTxMhwaUILvPcaUI-16" source="22XOwTxMhwaUILvPcaUI-107" target="22XOwTxMhwaUILvPcaUI-61">
          <mxGeometry width="50" height="50" relative="1" as="geometry">
            <mxPoint x="830" y="339" as="sourcePoint" />
            <mxPoint x="880" y="289" as="targetPoint" />
            <Array as="points">
              <mxPoint x="740" y="325" />
              <mxPoint x="740" y="210" />
            </Array>
          </mxGeometry>
        </mxCell>
        <mxCell id="22XOwTxMhwaUILvPcaUI-109" value="" style="endArrow=classic;html=1;rounded=0;exitX=0.5;exitY=1;exitDx=0;exitDy=0;entryX=0.5;entryY=0;entryDx=0;entryDy=0;edgeStyle=orthogonalEdgeStyle;" edge="1" parent="22XOwTxMhwaUILvPcaUI-16" source="22XOwTxMhwaUILvPcaUI-104" target="22XOwTxMhwaUILvPcaUI-34">
          <mxGeometry width="50" height="50" relative="1" as="geometry">
            <mxPoint x="520" y="549" as="sourcePoint" />
            <mxPoint x="570" y="499" as="targetPoint" />
          </mxGeometry>
        </mxCell>
        <mxCell id="22XOwTxMhwaUILvPcaUI-32" value="Customer" style="swimlane;html=1;startSize=20;horizontal=0;" vertex="1" parent="22XOwTxMhwaUILvPcaUI-16">
          <mxGeometry x="20" y="420" width="1090" height="190" as="geometry" />
        </mxCell>
        <mxCell id="22XOwTxMhwaUILvPcaUI-34" value="iInvoice" style="rounded=0;whiteSpace=wrap;html=1;fontFamily=Helvetica;fontSize=12;fontColor=#000000;align=center;fillColor=#FFFFFF;" vertex="1" parent="22XOwTxMhwaUILvPcaUI-32">
          <mxGeometry x="460" y="-20" width="90" height="50" as="geometry" />
        </mxCell>
        <mxCell id="22XOwTxMhwaUILvPcaUI-110" value="Accept&lt;div&gt;Payment&lt;/div&gt;" style="rounded=1;whiteSpace=wrap;html=1;" vertex="1" parent="22XOwTxMhwaUILvPcaUI-32">
          <mxGeometry x="540" y="79" width="100" height="78.5" as="geometry" />
        </mxCell>
        <mxCell id="22XOwTxMhwaUILvPcaUI-111" value="" style="endArrow=classic;html=1;rounded=0;exitX=0.5;exitY=1;exitDx=0;exitDy=0;entryX=0;entryY=0.5;entryDx=0;entryDy=0;edgeStyle=orthogonalEdgeStyle;" edge="1" parent="22XOwTxMhwaUILvPcaUI-32" source="22XOwTxMhwaUILvPcaUI-34" target="22XOwTxMhwaUILvPcaUI-110">
          <mxGeometry width="50" height="50" relative="1" as="geometry">
            <mxPoint x="500" y="129" as="sourcePoint" />
            <mxPoint x="550" y="79" as="targetPoint" />
          </mxGeometry>
        </mxCell>
        <mxCell id="22XOwTxMhwaUILvPcaUI-112" value="" style="endArrow=classic;html=1;rounded=0;entryX=0.5;entryY=1;entryDx=0;entryDy=0;exitX=1;exitY=0.5;exitDx=0;exitDy=0;edgeStyle=orthogonalEdgeStyle;" edge="1" parent="22XOwTxMhwaUILvPcaUI-16" source="22XOwTxMhwaUILvPcaUI-110" target="22XOwTxMhwaUILvPcaUI-107">
          <mxGeometry width="50" height="50" relative="1" as="geometry">
            <mxPoint x="520" y="549" as="sourcePoint" />
            <mxPoint x="570" y="499" as="targetPoint" />
          </mxGeometry>
        </mxCell>
      </root>
    </mxGraphModel>
  </diagram>
</mxfile>
